<svg version="1.1" id="Layer_1" xmlns="http://www.w3.org/2000/svg" xmlns:xlink="http://www.w3.org/1999/xlink" x="0px" y="0px"
	 width="100%" viewBox="0 0 280 280" enable-background="new 0 0 280 280" xml:space="preserve">
<path fill="rgba(0,0,0,0)" opacity="1.000000" stroke="none" 
	d="
M129.000000,281.000000 
	C86.000000,281.000000 43.500000,281.000000 1.000000,281.000000 
	C1.000000,187.666672 1.000000,94.333336 1.000000,1.000000 
	C94.333336,1.000000 187.666672,1.000000 281.000000,1.000000 
	C281.000000,94.333336 281.000000,187.666672 281.000000,281.000000 
	C230.500000,281.000000 180.000000,281.000000 129.000000,281.000000 
M117.747910,206.867874 
	C121.569687,212.547882 126.970512,215.944397 131.924332,217.791565 
	C128.403641,213.768326 124.179878,208.941666 120.063187,203.293152 
	C119.311501,199.860199 118.559814,196.427261 117.967125,192.296753 
	C118.329750,191.812683 118.692375,191.328629 119.125969,191.584122 
	C120.741066,194.419479 122.356155,197.254822 124.231453,200.697006 
	C134.085907,212.043671 146.324432,218.088425 161.593994,217.505661 
	C152.272064,213.459930 142.915939,209.541931 136.974258,199.832870 
	C138.326233,200.004196 139.122040,200.105026 140.192291,200.805695 
	C142.217194,202.521194 144.252975,204.224030 146.265244,205.954193 
	C162.400757,219.827805 185.515152,214.638367 195.862244,194.790512 
	C194.610611,195.276215 193.689224,195.490707 192.918289,195.955017 
	C184.997559,200.725220 176.447296,202.377808 167.543961,200.010178 
	C160.261856,198.073685 153.209961,195.271408 145.896912,192.211105 
	C144.286407,191.092972 142.675888,189.974823 140.802887,188.238724 
	C139.202103,186.158829 137.601318,184.078934 135.854019,181.318375 
	C134.448349,178.878906 133.042694,176.439453 131.515335,173.254456 
	C131.528152,167.209518 127.998405,164.306152 122.628937,162.559769 
	C120.154785,161.755066 118.688690,162.126266 117.989555,164.416229 
	C116.311508,169.912628 114.835548,175.470718 113.062859,181.813110 
	C113.082909,185.541382 113.102966,189.269669 113.018021,193.798248 
	C114.540863,197.923157 116.063705,202.048065 117.747910,206.867874 
M84.182800,131.095108 
	C80.417145,138.027405 85.090233,142.430710 89.225555,147.687454 
	C92.373566,149.839828 95.521576,151.992203 99.214844,154.697311 
	C107.473549,155.739212 115.732262,156.781097 124.677124,158.084229 
	C129.162964,160.297333 133.648788,162.510437 138.488907,164.898331 
	C141.681152,160.197418 141.291260,154.106445 140.735168,147.258759 
	C138.133636,143.228516 135.532120,139.198288 132.599213,134.582153 
	C130.225998,132.336395 127.852798,130.090652 125.130150,127.246979 
	C122.696457,124.847366 120.262764,122.447762 117.591576,119.430351 
	C114.760551,116.549057 111.929535,113.667763 109.071091,110.048897 
	C108.266502,108.032265 107.461914,106.015625 106.585663,103.172363 
	C106.186096,95.229408 105.786522,87.286453 105.383255,79.270012 
	C94.797768,85.566826 90.062477,95.827744 91.755463,106.949585 
	C91.501289,106.968124 91.247124,106.986664 90.302727,106.746742 
	C83.588150,111.820793 81.759315,119.498070 84.954277,129.675003 
	C84.967049,130.128922 84.979828,130.582855 84.182800,131.095108 
M156.791855,146.528656 
	C157.371964,142.680908 157.952072,138.833176 158.856842,134.263809 
	C160.587753,129.514648 162.318680,124.765488 164.561401,119.588150 
	C167.886734,115.567497 171.212051,111.546852 174.726242,107.297852 
	C169.244843,106.965263 163.882751,106.232101 158.573441,106.509331 
	C156.304932,106.627785 152.986832,108.343735 152.162170,110.220062 
	C149.963089,115.223549 148.857925,120.707832 146.982620,126.622307 
	C144.123108,129.549240 141.263596,132.476181 138.089890,135.724716 
	C138.837555,136.810837 140.309113,138.948517 142.015442,141.802582 
	C142.902176,144.576553 143.788910,147.350510 144.808716,151.009583 
	C144.808716,154.899246 144.808716,158.788910 144.808716,163.431931 
	C152.113037,160.384583 154.419907,153.903793 156.791855,146.528656 
M105.224297,184.674973 
	C104.676071,192.269501 105.788696,199.420471 110.904083,205.507690 
	C109.234291,198.683411 107.564491,191.859131 105.224297,184.674973 
z"/>
<path fill="#009DF8" opacity="1.000000" stroke="none" 
	d="
M146.056000,192.852966 
	C153.209961,195.271408 160.261856,198.073685 167.543961,200.010178 
	C176.447296,202.377808 184.997559,200.725220 192.918289,195.955017 
	C193.689224,195.490707 194.610611,195.276215 195.862244,194.790512 
	C185.515152,214.638367 162.400757,219.827805 146.265244,205.954193 
	C144.252975,204.224030 142.217194,202.521194 140.135254,200.150818 
	C142.070816,197.281601 144.063416,195.067291 146.056000,192.852966 
z"/>
<path fill="#16D9E2" opacity="1.000000" stroke="none" 
	d="
M98.669586,154.144577 
	C95.521576,151.992203 92.373566,149.839828 89.174644,147.035187 
	C91.442535,144.174240 93.761330,141.965546 96.435081,139.861572 
	C99.029518,140.664444 101.269005,141.362610 103.508484,142.060760 
	C103.635208,141.768875 103.761925,141.476990 103.888641,141.185104 
	C103.034065,140.580978 102.179482,139.976837 101.668137,139.186584 
	C109.834114,135.281952 117.656860,131.563416 125.479599,127.844887 
	C127.852798,130.090652 130.225998,132.336395 132.586731,135.150970 
	C130.736969,137.087936 129.044647,138.735458 127.037727,139.776535 
	C117.629082,144.657257 108.133881,149.371124 98.669586,154.144577 
z"/>
<path fill="#12CEE6" opacity="1.000000" stroke="none" 
	d="
M98.942215,154.420944 
	C108.133881,149.371124 117.629082,144.657257 127.037727,139.776535 
	C129.044647,138.735458 130.736969,137.087936 132.752411,135.443909 
	C135.532120,139.198288 138.133636,143.228516 140.375244,147.647186 
	C135.437454,150.152023 130.797089,152.148193 126.327278,154.472351 
	C125.257095,155.028778 124.754570,156.676941 123.990967,157.822998 
	C115.732262,156.781097 107.473549,155.739212 98.942215,154.420944 
z"/>
<path fill="#019BF2" opacity="1.000000" stroke="none" 
	d="
M145.976456,192.532043 
	C144.063416,195.067291 142.070816,197.281601 139.998016,199.850891 
	C139.122040,200.105026 138.326233,200.004196 136.974258,199.832870 
	C142.915939,209.541931 152.272064,213.459930 161.593994,217.505661 
	C146.324432,218.088425 134.085907,212.043671 124.202835,200.061981 
	C125.452652,198.453201 126.656380,197.356018 128.023361,196.528549 
	C132.337814,193.916931 136.713425,191.406357 141.065384,188.856689 
	C142.675888,189.974823 144.286407,191.092972 145.976456,192.532043 
z"/>
<path fill="#1AE2DD" opacity="1.000000" stroke="none" 
	d="
M125.304871,127.545929 
	C117.656860,131.563416 109.834114,135.281952 101.351212,139.081665 
	C96.727226,136.621490 92.763390,134.080154 88.973373,131.207001 
	C93.100266,128.581604 97.053345,126.288025 101.327293,124.112244 
	C103.128464,124.485672 104.608765,124.741318 106.437088,124.928795 
	C110.466431,123.256477 114.147751,121.652313 117.829071,120.048157 
	C120.262764,122.447762 122.696457,124.847366 125.304871,127.545929 
z"/>
<path fill="#17D6DC" opacity="1.000000" stroke="none" 
	d="
M147.317917,126.000984 
	C148.857925,120.707832 149.963089,115.223549 152.162170,110.220062 
	C152.986832,108.343735 156.304932,106.627785 158.573441,106.509331 
	C163.882751,106.232101 169.244843,106.965263 174.726242,107.297852 
	C171.212051,111.546852 167.886734,115.567497 163.925446,119.818222 
	C161.603027,120.658897 159.910889,121.254311 158.231308,121.883247 
	C154.590103,123.246735 150.955322,124.627357 147.317917,126.000984 
z"/>
<path fill="#24F6CE" opacity="1.000000" stroke="none" 
	d="
M92.519424,106.920448 
	C90.062477,95.827744 94.797768,85.566826 105.383255,79.270012 
	C105.786522,87.286453 106.186096,95.229408 106.247131,103.593506 
	C101.929100,105.705994 97.949615,107.397339 93.749283,108.935699 
	C93.192101,108.161957 92.855766,107.541199 92.519424,106.920448 
z"/>
<path fill="#13CFE3" opacity="1.000000" stroke="none" 
	d="
M147.150269,126.311646 
	C150.955322,124.627357 154.590103,123.246735 158.231308,121.883247 
	C159.910889,121.254311 161.603027,120.658897 163.669556,120.032310 
	C162.318680,124.765488 160.587753,129.514648 158.342072,134.656830 
	C152.478409,137.061966 147.129547,139.074081 141.780670,141.086182 
	C140.309113,138.948517 138.837555,136.810837 138.089890,135.724716 
	C141.263596,132.476181 144.123108,129.549240 147.150269,126.311646 
z"/>
<path fill="#1FECD5" opacity="1.000000" stroke="none" 
	d="
M101.006424,123.994453 
	C97.053345,126.288025 93.100266,128.581604 88.673370,131.069473 
	C87.133972,130.507645 86.068375,129.751541 85.002785,128.995422 
	C81.759315,119.498070 83.588150,111.820793 90.659622,107.247177 
	C94.346481,113.163231 97.676453,118.578842 101.006424,123.994453 
z"/>
<path fill="#08B4F2" opacity="1.000000" stroke="none" 
	d="
M131.637024,173.999985 
	C133.042694,176.439453 134.448349,178.878906 135.604706,181.804993 
	C129.921936,185.142593 124.488472,187.993591 119.055008,190.844574 
	C118.692375,191.328629 118.329750,191.812683 117.497253,192.646820 
	C115.725929,192.997223 114.424469,192.997574 113.123016,192.997940 
	C113.102966,189.269669 113.082909,185.541382 113.541153,181.401215 
	C115.250443,180.615372 116.520889,180.337402 117.705490,179.850555 
	C122.364006,177.936050 126.995499,175.955811 131.637024,173.999985 
z"/>
<path fill="#0CBCEC" opacity="1.000000" stroke="none" 
	d="
M131.576172,173.627228 
	C126.995499,175.955811 122.364006,177.936050 117.705490,179.850555 
	C116.520889,180.337402 115.250443,180.615372 113.648743,180.996613 
	C114.835548,175.470718 116.311508,169.912628 117.989555,164.416229 
	C118.688690,162.126266 120.154785,161.755066 122.628937,162.559769 
	C127.998405,164.306152 131.528152,167.209518 131.576172,173.627228 
z"/>
<path fill="#05ADF6" opacity="1.000000" stroke="none" 
	d="
M119.090485,191.214355 
	C124.488472,187.993591 129.921936,185.142593 135.677963,182.145325 
	C137.601318,184.078934 139.202103,186.158829 140.934143,188.547699 
	C136.713425,191.406357 132.337814,193.916931 128.023361,196.528549 
	C126.656380,197.356018 125.452652,198.453201 124.072731,199.758575 
	C122.356155,197.254822 120.741066,194.419479 119.090485,191.214355 
z"/>
<path fill="#0EBFE5" opacity="1.000000" stroke="none" 
	d="
M124.334045,157.953613 
	C124.754570,156.676941 125.257095,155.028778 126.327278,154.472351 
	C130.797089,152.148193 135.437454,150.152023 140.371902,148.010895 
	C141.291260,154.106445 141.681152,160.197418 138.488907,164.898331 
	C133.648788,162.510437 129.162964,160.297333 124.334045,157.953613 
z"/>
<path fill="#10C7E7" opacity="1.000000" stroke="none" 
	d="
M141.898056,141.444382 
	C147.129547,139.074081 152.478409,137.061966 158.179718,135.017639 
	C157.952072,138.833176 157.371964,142.680908 156.151398,146.805084 
	C151.899170,148.095840 148.287415,149.110168 144.675659,150.124481 
	C143.788910,147.350510 142.902176,144.576553 141.898056,141.444382 
z"/>
<path fill="#1DE8D8" opacity="1.000000" stroke="none" 
	d="
M117.710327,119.739258 
	C114.147751,121.652313 110.466431,123.256477 106.176971,124.716339 
	C103.096504,122.044518 100.624176,119.517006 98.495415,116.919006 
	C102.258820,114.827843 105.678665,112.807152 109.098511,110.786469 
	C111.929535,113.667763 114.760551,116.549057 117.710327,119.739258 
z"/>
<path fill="#21F2D5" opacity="1.000000" stroke="none" 
	d="
M109.084801,110.417679 
	C105.678665,112.807152 102.258820,114.827843 98.206497,116.722015 
	C96.372719,114.093239 95.171425,111.590965 93.970139,109.088684 
	C97.949615,107.397339 101.929100,105.705994 106.282959,104.006821 
	C107.461914,106.015625 108.266502,108.032265 109.084801,110.417679 
z"/>
<path fill="#0EBDE9" opacity="1.000000" stroke="none" 
	d="
M144.742188,150.567032 
	C148.287415,149.110168 151.899170,148.095840 155.923203,147.101913 
	C154.419907,153.903793 152.113037,160.384583 144.808716,163.431931 
	C144.808716,158.788910 144.808716,154.899246 144.742188,150.567032 
z"/>
<path fill="#1ADEDA" opacity="1.000000" stroke="none" 
	d="
M96.080124,139.756866 
	C93.761330,141.965546 91.442535,144.174240 89.047256,146.727234 
	C85.090233,142.430710 80.417145,138.027405 84.717148,131.375549 
	C88.861046,134.356277 92.470589,137.056564 96.080124,139.756866 
z"/>
<path fill="#0094E9" opacity="1.000000" stroke="none" 
	d="
M119.956116,204.114990 
	C124.179878,208.941666 128.403641,213.768326 131.924332,217.791565 
	C126.970512,215.944397 121.569687,212.547882 117.992645,206.431732 
	C118.810287,205.368729 119.383202,204.741867 119.956116,204.114990 
z"/>
<path fill="#04A8F3" opacity="1.000000" stroke="none" 
	d="
M120.009644,203.704071 
	C119.383202,204.741867 118.810287,205.368729 117.911957,206.084290 
	C116.063705,202.048065 114.540863,197.923157 113.070518,193.398102 
	C114.424469,192.997574 115.725929,192.997223 117.417755,192.995590 
	C118.559814,196.427261 119.311501,199.860199 120.009644,203.704071 
z"/>
<path fill="#052924" opacity="1.000000" stroke="none" 
	d="
M93.749283,108.935699 
	C95.171425,111.590965 96.372719,114.093239 97.862930,116.792496 
	C100.624176,119.517006 103.096504,122.044518 105.828949,124.784500 
	C104.608765,124.741318 103.128464,124.485672 101.327293,124.112244 
	C97.676453,118.578842 94.346481,113.163231 91.004738,107.376404 
	C91.247124,106.986664 91.501289,106.968124 92.137444,106.935013 
	C92.855766,107.541199 93.192101,108.161957 93.749283,108.935699 
z"/>
<path fill="#069AD5" opacity="1.000000" stroke="none" 
	d="
M105.559494,184.854919 
	C107.564491,191.859131 109.234291,198.683411 110.904083,205.507690 
	C105.788696,199.420471 104.676071,192.269501 105.559494,184.854919 
z"/>
<path fill="#052924" opacity="1.000000" stroke="none" 
	d="
M96.435074,139.861572 
	C92.470589,137.056564 88.861046,134.356277 85.122055,131.346375 
	C84.979828,130.582855 84.967049,130.128922 84.978531,129.335205 
	C86.068375,129.751541 87.133972,130.507645 88.499557,131.401291 
	C92.763390,134.080154 96.727226,136.621490 101.007980,139.267776 
	C102.179482,139.976837 103.034065,140.580978 103.888641,141.185104 
	C103.761925,141.476990 103.635208,141.768875 103.508484,142.060760 
	C101.269005,141.362610 99.029518,140.664444 96.435074,139.861572 
z"/>
</svg>